<svg width="74" height="74" viewBox="0 0 74 74" fill="none" xmlns="http://www.w3.org/2000/svg">
<rect width="74" height="74" fill="#1D1D1D"/>
<g id="Landing Page - Studio">
<rect width="1440" height="4102" transform="translate(-1067 -1454)" fill="#FEFEFE"/>
<g id="How can we Help">
<path id="Rectangle 24" d="M-674 -182C-674 -264.843 -606.843 -332 -524 -332H373V287H-674V-182Z" fill="#F4F9FF"/>
<g id="Group 69">
<g id="Rectangle 27" filter="url(#filter0_d_0_1)">
<rect x="-118" y="-63" width="308" height="379" rx="40" fill="white"/>
<rect x="-117.5" y="-62.5" width="307" height="378" rx="39.5" stroke="#F2F2F2"/>
</g>
<rect id="Rectangle 28" x="-24" y="-24" width="121" height="121" rx="20" fill="#DEFFEE"/>
<g id="chart-square 1">
<path id="Vector" d="M31.1734 55.9616H19.4876C18.2234 55.9616 17.1751 54.9132 17.1751 53.6491V37.8624C17.1751 34.6558 19.7959 32.0346 23.0026 32.0346H31.1734C32.4376 32.0346 33.4859 33.0829 33.4859 34.3471V53.6179C33.4859 54.9129 32.4376 55.9616 31.1734 55.9616ZM21.8001 51.3366H28.8609V36.6907H23.0026C22.3551 36.6907 21.8001 37.2146 21.8001 37.8929V51.3366Z" fill="#00DA71"/>
<path id="Vector_2" d="M42.8263 55.9616H31.1404C29.8763 55.9616 28.828 54.9133 28.828 53.6491V23.8638C28.828 20.6572 31.4488 18.0363 34.6554 18.0363H39.3421C42.5488 18.0363 45.1696 20.6572 45.1696 23.8638V53.6491C45.1388 54.9133 44.1213 55.9616 42.8263 55.9616ZM33.4838 51.3366H40.5446V23.8638C40.5446 23.2163 40.0204 22.6613 39.3421 22.6613H34.6554C34.0079 22.6613 33.4529 23.1855 33.4529 23.8638V51.3366H33.4838Z" fill="#00DA71"/>
<path id="Vector_3" d="M54.5152 55.9616H42.8293C41.5652 55.9616 40.5168 54.9133 40.5168 53.6491V39.6196C40.5168 38.3555 41.5652 37.3071 42.8293 37.3071H51.0002C54.2068 37.3071 56.8277 39.928 56.8277 43.1346V53.6491C56.8277 54.9133 55.8102 55.9616 54.5152 55.9616ZM45.1418 51.3366H52.2027V43.1346C52.2027 42.4871 51.6785 41.9321 51.0002 41.9321H45.1418V51.3366Z" fill="#00DA71"/>
<path id="Vector_4" d="M46.25 70.1459H27.75C11.0075 70.1459 3.85416 62.9925 3.85416 46.25V27.75C3.85416 11.0075 11.0075 3.85419 27.75 3.85419H46.25C62.9925 3.85419 70.1458 11.0075 70.1458 27.75V46.25C70.1458 62.9925 62.9925 70.1459 46.25 70.1459ZM27.75 8.47919C13.5358 8.47919 8.47916 13.5359 8.47916 27.75V46.25C8.47916 60.4642 13.5358 65.5209 27.75 65.5209H46.25C60.4642 65.5209 65.5208 60.4642 65.5208 46.25V27.75C65.5208 13.5359 60.4642 8.47919 46.25 8.47919H27.75Z" fill="#00DA71"/>
</g>
</g>
</g>
</g>
<defs>
<filter id="filter0_d_0_1" x="-168" y="-103" width="408" height="479" filterUnits="userSpaceOnUse" color-interpolation-filters="sRGB">
<feFlood flood-opacity="0" result="BackgroundImageFix"/>
<feColorMatrix in="SourceAlpha" type="matrix" values="0 0 0 0 0 0 0 0 0 0 0 0 0 0 0 0 0 0 127 0" result="hardAlpha"/>
<feOffset dy="10"/>
<feGaussianBlur stdDeviation="25"/>
<feComposite in2="hardAlpha" operator="out"/>
<feColorMatrix type="matrix" values="0 0 0 0 0 0 0 0 0 0 0 0 0 0 0 0 0 0 0.05 0"/>
<feBlend mode="normal" in2="BackgroundImageFix" result="effect1_dropShadow_0_1"/>
<feBlend mode="normal" in="SourceGraphic" in2="effect1_dropShadow_0_1" result="shape"/>
</filter>
</defs>
</svg>
